<?xml version="1.0" standalone="no"?>
<!DOCTYPE svg PUBLIC "-//W3C//DTD SVG 20010904//EN"
 "http://www.w3.org/TR/2001/REC-SVG-20010904/DTD/svg10.dtd">
<svg version="1.0" xmlns="http://www.w3.org/2000/svg"
 width="9144.000000pt" height="4165.000000pt" viewBox="0 0 9144.000000 4165.000000"
 preserveAspectRatio="xMidYMid meet">

<g transform="translate(0.000000,4165.000000) scale(0.100000,-0.100000)"
fill="#000000" stroke="none">
<path d="M18920 38039 c-3261 -118 -6384 -1137 -9080 -2963 -1434 -972 -2733
-2172 -3820 -3530 -2795 -3491 -4119 -7898 -3719 -12376 404 -4528 2584 -8714
6073 -11664 3186 -2694 7221 -4141 11386 -4083 1125 16 2132 119 3162 323
1830 362 3572 1012 5203 1942 2408 1372 4482 3338 5988 5677 1497 2326 2410
4957 2671 7705 56 587 76 1029 76 1675 0 639 -20 1066 -76 1655 -454 4786
-2879 9147 -6729 12101 -1567 1203 -3403 2159 -5284 2750 -1288 405 -2525 643
-3911 754 -471 38 -1396 54 -1940 34z m5920 -11477 c-62 -9 180 -41 360 -48
123 -5 171 -11 189 -23 16 -10 60 -17 140 -21 88 -4 122 -9 141 -22 17 -13 44
-18 93 -18 54 0 74 -4 94 -20 20 -15 41 -20 92 -20 49 0 74 -5 96 -20 22 -15
47 -20 96 -20 53 0 69 -4 84 -20 13 -15 31 -20 65 -20 32 0 55 -6 73 -20 17
-14 40 -20 73 -20 34 0 54 -6 69 -20 12 -11 42 -23 71 -26 27 -4 57 -13 66
-22 9 -8 39 -17 65 -19 26 -3 53 -12 60 -20 6 -8 31 -17 55 -20 24 -3 51 -14
61 -24 10 -11 32 -19 51 -19 20 0 40 -8 51 -20 12 -13 31 -20 56 -20 28 0 41
-5 49 -20 7 -14 21 -20 44 -20 18 0 45 -9 59 -20 14 -11 39 -20 55 -20 19 0
35 -8 43 -20 8 -12 26 -22 42 -24 15 -1 37 -12 48 -24 11 -12 30 -22 43 -22
13 0 31 -9 41 -20 10 -11 28 -20 40 -20 12 0 30 -9 40 -20 10 -11 28 -20 41
-20 13 0 28 -9 34 -20 6 -11 21 -20 34 -20 13 0 31 -9 41 -20 10 -11 24 -20
32 -20 7 0 21 -9 30 -20 10 -11 28 -20 40 -20 12 0 27 -9 33 -20 6 -11 20 -20
30 -20 11 0 29 -9 40 -20 11 -11 23 -20 26 -20 3 0 19 -11 36 -25 16 -14 38
-25 48 -25 11 0 23 -7 28 -16 9 -16 34 -33 90 -59 18 -9 35 -22 39 -30 3 -8
13 -15 23 -15 9 0 25 -9 35 -20 10 -11 24 -20 31 -20 8 0 19 -9 26 -20 7 -11
18 -20 25 -20 7 0 13 -4 13 -10 0 -5 30 -29 68 -54 37 -24 96 -72 131 -106 35
-34 81 -72 102 -86 52 -32 69 -48 295 -273 108 -107 220 -228 250 -268 30 -40
83 -103 119 -140 35 -36 70 -81 76 -100 6 -18 15 -33 20 -33 5 0 15 -11 21
-25 6 -14 17 -25 24 -25 8 0 17 -12 20 -27 8 -29 40 -81 62 -98 15 -12 36 -48
53 -88 6 -15 20 -32 30 -38 11 -5 19 -20 19 -35 0 -15 15 -40 40 -66 27 -28
40 -51 40 -69 0 -19 6 -30 20 -34 14 -4 20 -15 20 -34 0 -17 10 -36 25 -49 14
-12 25 -28 25 -36 0 -7 6 -19 14 -25 8 -7 18 -25 21 -41 3 -16 12 -34 20 -40
8 -6 17 -26 21 -43 3 -18 15 -43 25 -56 11 -13 19 -33 19 -45 0 -12 9 -29 20
-39 12 -10 20 -29 20 -47 0 -19 7 -33 20 -40 14 -7 20 -21 20 -44 0 -18 9 -45
20 -59 12 -15 20 -40 20 -62 0 -28 5 -38 20 -42 17 -4 20 -14 20 -54 0 -35 5
-51 18 -61 12 -8 21 -30 24 -62 4 -30 12 -52 22 -58 11 -6 16 -23 16 -58 0
-38 5 -55 22 -72 16 -16 22 -35 23 -74 2 -36 9 -61 24 -80 16 -21 21 -41 21
-89 0 -48 5 -67 20 -85 16 -18 20 -37 20 -94 0 -54 5 -78 20 -101 16 -25 20
-47 20 -123 0 -73 4 -101 20 -132 17 -34 20 -60 21 -197 0 -121 4 -170 18
-211 9 -29 20 -50 24 -46 4 4 7 -162 7 -370 0 -207 -4 -375 -9 -372 -20 12
-41 -97 -41 -212 0 -95 -3 -119 -17 -134 -13 -14 -19 -44 -23 -113 -4 -69 -9
-98 -22 -112 -13 -15 -18 -37 -18 -86 0 -55 -4 -70 -20 -84 -15 -13 -20 -30
-20 -65 0 -35 -5 -52 -20 -66 -14 -13 -22 -34 -24 -66 -2 -31 -8 -51 -21 -60
-13 -9 -20 -28 -21 -57 -3 -60 -2 -59 -18 -59 -16 0 -26 -21 -26 -57 0 -14 -9
-36 -20 -50 -11 -14 -20 -38 -20 -53 0 -15 -9 -35 -20 -45 -11 -10 -20 -31
-20 -46 0 -18 -7 -32 -20 -39 -11 -6 -20 -21 -20 -34 0 -13 -7 -29 -15 -36 -8
-6 -28 -40 -45 -75 -17 -35 -37 -66 -45 -69 -8 -3 -15 -14 -15 -25 0 -29 -11
-51 -24 -51 -7 0 -18 -11 -24 -25 -6 -14 -16 -25 -22 -25 -5 0 -10 -11 -10
-24 0 -16 -16 -41 -45 -69 -25 -25 -45 -50 -45 -56 0 -25 -61 -93 -266 -295
-260 -258 -247 -246 -265 -246 -8 0 -36 -20 -64 -45 -27 -25 -52 -45 -57 -45
-13 0 -98 -61 -98 -71 0 -5 -13 -9 -30 -9 -19 0 -33 -7 -40 -20 -6 -11 -17
-20 -24 -20 -7 0 -21 -9 -31 -20 -10 -11 -28 -20 -41 -20 -13 0 -28 -9 -34
-20 -7 -13 -21 -20 -40 -20 -19 0 -33 -7 -40 -20 -7 -13 -21 -20 -40 -20 -18
0 -37 -8 -47 -20 -11 -12 -30 -20 -49 -20 -17 0 -44 -10 -59 -22 -15 -12 -39
-23 -53 -24 -13 -2 -34 -12 -46 -23 -14 -13 -36 -21 -58 -21 -22 0 -41 -7 -53
-20 -13 -14 -31 -20 -60 -20 -29 0 -47 -6 -60 -20 -14 -15 -31 -20 -70 -20
-39 0 -56 -5 -70 -20 -14 -16 -31 -20 -79 -20 -43 0 -69 -5 -86 -17 -18 -13
-53 -20 -120 -24 -61 -3 -104 -11 -120 -21 -18 -12 -59 -17 -145 -20 -93 -3
-126 -8 -145 -21 -22 -15 -68 -17 -495 -17 -432 0 -473 1 -495 18 -21 14 -53
18 -209 20 -164 3 -188 6 -209 23 -18 14 -41 19 -82 19 -44 0 -61 4 -75 20
-13 14 -31 20 -61 20 -33 0 -46 5 -54 20 -6 11 -17 20 -24 20 -7 0 -25 9 -39
20 -14 11 -32 20 -41 20 -8 0 -20 9 -26 20 -6 11 -20 20 -30 20 -11 0 -28 9
-37 20 -10 11 -22 20 -27 20 -22 0 -136 143 -151 189 -3 12 -12 21 -20 21 -14
0 -25 21 -25 49 0 9 -9 24 -20 34 -12 10 -20 29 -20 47 0 20 -5 30 -15 30 -17
0 -17 0 -20 53 -1 22 -11 47 -24 60 -11 13 -21 28 -21 34 0 7 -10 15 -22 19
-22 7 -22 6 -73 -61 -8 -10 -15 -23 -15 -29 0 -13 -186 -196 -199 -196 -6 0
-11 -5 -11 -11 0 -5 -16 -17 -35 -25 -19 -8 -35 -19 -35 -24 0 -6 -8 -14 -17
-17 -9 -4 -33 -24 -54 -45 -20 -21 -40 -38 -45 -38 -12 0 -81 -49 -122 -88
-21 -18 -50 -36 -65 -39 -15 -3 -32 -14 -38 -24 -6 -12 -21 -19 -37 -19 -16 0
-32 -8 -40 -20 -7 -11 -23 -20 -37 -20 -14 0 -33 -9 -42 -20 -10 -11 -30 -20
-45 -20 -16 0 -36 -9 -45 -20 -11 -12 -30 -20 -49 -20 -17 0 -43 -9 -57 -20
-14 -11 -34 -20 -45 -20 -10 0 -31 -9 -46 -21 -17 -14 -44 -22 -77 -24 -28 -1
-54 -7 -58 -12 -13 -21 -52 -33 -106 -33 -40 0 -63 -6 -83 -20 -27 -20 -41
-21 -409 -21 -363 1 -422 5 -438 30 -3 6 -35 11 -70 11 -51 0 -68 4 -83 20
-12 13 -38 22 -77 26 -34 4 -70 15 -84 26 -14 11 -40 18 -65 18 -29 0 -47 6
-59 20 -9 11 -29 20 -44 20 -17 0 -33 8 -41 20 -8 13 -23 20 -42 20 -19 0 -33
7 -40 20 -7 13 -21 20 -40 20 -19 0 -33 7 -40 20 -6 12 -21 20 -35 20 -14 0
-30 9 -37 20 -7 11 -18 20 -24 20 -6 0 -19 9 -29 20 -10 11 -27 20 -38 20 -11
0 -36 17 -56 38 -20 20 -61 53 -91 74 -48 31 -208 200 -219 229 -2 6 -30 38
-62 71 -33 33 -59 68 -59 78 0 10 -20 40 -45 67 -25 27 -45 58 -45 70 0 12 -9
27 -20 33 -13 7 -20 21 -20 40 0 19 -7 34 -20 42 -14 9 -20 24 -20 46 0 25 -5
35 -20 39 -15 4 -20 14 -20 39 0 23 -6 37 -20 44 -15 8 -20 21 -20 50 0 26 -7
47 -18 58 -11 11 -22 38 -25 61 -3 24 -12 50 -20 59 -8 9 -17 41 -19 71 -4 37
-11 59 -24 68 -14 10 -18 29 -20 88 -3 58 -8 82 -24 102 -17 22 -20 40 -20
135 0 89 -4 116 -20 148 -19 37 -20 59 -20 467 1 402 2 430 20 468 15 31 19
62 20 134 0 77 4 100 21 127 15 24 21 53 23 103 2 53 7 75 22 92 14 15 19 36
20 78 0 45 5 62 22 79 16 16 22 34 22 68 0 31 5 51 16 59 9 6 18 32 21 60 4
27 14 56 24 66 12 12 19 33 19 59 0 29 5 42 20 50 14 7 20 21 20 44 0 19 9 43
20 56 11 13 20 36 20 52 0 16 9 36 20 45 11 10 20 29 20 43 0 16 10 35 25 48
14 12 25 32 25 45 0 13 9 32 20 42 11 10 20 26 20 35 0 10 7 23 15 30 8 7 15
19 15 26 0 7 11 21 25 30 17 11 25 25 25 45 0 15 7 32 16 37 17 9 36 40 55 85
6 15 20 32 30 38 10 5 19 16 19 24 0 8 9 19 20 25 11 6 20 20 20 31 0 18 47
76 103 127 10 10 28 36 39 60 12 24 82 103 158 180 164 164 200 197 263 238
26 17 64 48 83 68 19 20 39 36 44 36 5 0 14 9 20 20 6 11 19 20 29 20 10 0 26
9 36 20 10 11 23 20 29 20 6 0 17 9 24 20 7 11 18 20 26 20 7 0 21 9 31 20 10
11 26 20 36 20 10 0 23 9 29 20 6 11 21 20 34 20 13 0 31 9 40 19 10 11 31 23
46 26 15 3 36 15 46 26 9 10 27 19 39 19 12 0 30 9 40 20 10 11 30 20 44 20
15 0 31 8 39 20 8 13 23 20 42 20 19 0 33 7 40 20 7 14 21 20 44 20 20 0 40 8
51 20 13 14 31 20 60 20 29 0 47 6 60 20 13 14 31 20 60 20 29 0 47 6 60 20
13 15 31 20 64 20 27 0 63 9 86 20 27 14 67 22 124 26 63 4 90 10 109 24 21
17 41 20 148 20 105 0 130 3 161 20 34 18 57 20 238 20 181 0 204 -2 238 -20
31 -17 56 -20 156 -20 104 0 121 -2 144 -20 18 -15 46 -22 94 -25 48 -3 72 -9
80 -21 8 -11 32 -19 65 -22 30 -2 58 -11 65 -19 7 -9 34 -18 60 -21 31 -3 53
-12 61 -24 7 -10 25 -18 40 -18 16 0 32 -8 40 -20 7 -11 23 -20 37 -20 16 0
39 -14 64 -40 21 -22 45 -40 53 -40 8 0 23 -9 33 -20 10 -11 22 -20 27 -20 5
0 47 -38 93 -85 45 -47 89 -85 97 -85 23 0 38 22 38 56 0 18 10 49 21 69 34
56 107 125 134 125 14 0 29 9 35 20 11 20 21 20 659 20 634 0 648 0 671 -20
13 -11 37 -20 56 -20 23 0 37 -6 44 -20 6 -11 19 -20 29 -20 10 0 26 -9 36
-20 10 -11 24 -20 31 -20 20 0 114 -98 114 -119 0 -10 9 -26 20 -36 11 -10 20
-31 20 -46 0 -17 8 -34 20 -42 20 -14 21 -24 20 -222 0 -185 -2 -210 -17 -228
-14 -14 -19 -43 -23 -112 -4 -73 -10 -98 -25 -115 -14 -16 -20 -40 -23 -108
-3 -61 -9 -92 -21 -106 -11 -13 -17 -43 -19 -105 -3 -62 -9 -91 -20 -105 -13
-13 -18 -42 -21 -108 -2 -72 -7 -94 -22 -109 -16 -16 -19 -34 -19 -109 0 -74
-3 -91 -17 -99 -14 -7 -18 -29 -23 -103 -3 -66 -10 -100 -22 -118 -13 -18 -18
-44 -18 -100 0 -57 -5 -83 -20 -108 -15 -24 -20 -50 -20 -105 0 -56 -5 -80
-22 -107 -16 -26 -22 -56 -26 -120 -3 -59 -9 -91 -21 -104 -11 -13 -17 -43
-19 -105 -3 -62 -9 -91 -20 -105 -12 -13 -18 -42 -20 -105 -3 -62 -9 -91 -20
-105 -12 -13 -18 -42 -21 -104 -2 -61 -9 -94 -22 -116 -14 -23 -19 -50 -19
-106 0 -58 -5 -82 -20 -105 -16 -24 -20 -47 -20 -122 0 -69 -5 -105 -20 -143
-11 -28 -20 -73 -20 -101 0 -30 8 -65 20 -89 11 -22 20 -54 20 -73 0 -21 8
-41 20 -52 11 -10 20 -27 20 -38 0 -25 68 -87 95 -87 12 0 30 -9 40 -20 17
-18 31 -20 185 -20 154 0 168 2 185 20 14 16 31 20 75 20 44 0 61 4 75 20 10
11 28 20 40 20 12 0 30 9 40 20 10 11 26 20 36 20 10 0 30 11 45 25 15 14 36
25 48 25 12 0 27 9 34 20 7 11 20 20 31 20 10 0 26 9 36 20 10 11 22 20 28 20
12 0 317 305 334 334 7 12 17 32 23 45 6 14 21 35 33 47 50 52 57 62 57 81 0
11 9 27 21 34 11 8 22 27 23 42 2 16 13 35 25 43 13 10 21 26 21 44 0 19 7 33
20 40 14 7 20 21 20 43 0 20 8 39 20 50 14 12 20 29 20 59 0 32 5 46 20 56 16
9 20 23 20 62 0 39 4 52 20 60 17 9 20 21 20 80 0 59 3 72 22 90 19 18 22 32
24 109 1 67 6 94 20 116 18 27 19 53 19 360 0 285 -2 336 -17 375 -12 31 -18
87 -21 182 -4 120 -7 140 -26 164 -17 22 -21 40 -21 108 0 69 -3 84 -20 99
-16 14 -20 29 -20 87 0 59 -3 71 -20 80 -16 8 -20 21 -20 59 0 33 -6 56 -20
74 -13 16 -20 40 -20 66 0 30 -5 43 -20 51 -15 8 -20 21 -20 50 0 47 -8 70
-25 70 -16 0 -26 25 -19 45 3 8 -6 29 -20 46 -15 18 -26 43 -26 60 0 17 -8 36
-20 46 -11 10 -20 29 -20 44 0 14 -9 34 -19 43 -11 10 -23 31 -26 48 -4 16
-13 32 -21 35 -8 3 -14 11 -14 18 0 6 -9 20 -20 30 -11 10 -20 26 -20 36 0 27
-11 49 -25 49 -14 0 -25 21 -25 47 0 16 -12 32 -57 75 -13 12 -23 34 -23 49 0
19 -6 30 -20 34 -11 3 -20 12 -20 20 0 7 -10 19 -23 27 -12 9 -33 36 -46 62
-12 26 -57 82 -100 124 -42 42 -107 115 -146 163 -63 76 -189 197 -234 224 -9
6 -42 35 -74 66 -31 31 -81 73 -110 92 -30 20 -68 50 -86 66 -18 17 -36 31
-41 31 -4 0 -15 9 -25 20 -10 11 -26 20 -36 20 -11 0 -24 9 -31 20 -7 11 -18
20 -25 20 -7 0 -17 9 -23 19 -5 11 -24 23 -42 26 -18 4 -37 14 -43 22 -11 15
-40 33 -91 57 -17 9 -34 22 -37 31 -4 9 -19 15 -36 15 -20 0 -34 7 -41 20 -6
11 -21 20 -34 20 -13 0 -31 9 -41 20 -10 11 -31 20 -46 20 -18 0 -34 8 -41 20
-7 11 -23 20 -36 20 -13 0 -37 11 -54 25 -16 14 -39 25 -50 25 -11 0 -31 9
-45 20 -14 11 -38 20 -53 20 -15 0 -35 9 -45 20 -11 12 -31 20 -51 20 -23 0
-37 6 -44 20 -7 13 -21 20 -41 20 -17 0 -42 9 -56 20 -17 13 -41 20 -68 20
-28 0 -50 7 -65 20 -16 14 -37 20 -68 20 -33 0 -52 6 -68 21 -15 14 -39 22
-76 25 -34 2 -57 9 -65 20 -8 11 -33 18 -80 21 -42 4 -75 12 -87 22 -13 11
-43 17 -104 20 -66 2 -92 8 -111 22 -19 15 -40 19 -104 19 -63 0 -85 4 -100
18 -16 14 -47 18 -211 22 -156 4 -197 8 -223 23 -29 15 -72 17 -470 17 -419 0
-440 -1 -476 -20 -30 -16 -56 -20 -141 -20 -88 0 -107 -3 -129 -20 -20 -16
-40 -20 -105 -20 -66 0 -82 -3 -97 -20 -14 -16 -31 -20 -80 -20 -46 0 -69 -5
-86 -19 -16 -12 -47 -20 -97 -23 -51 -4 -76 -10 -85 -22 -7 -9 -32 -18 -61
-21 -30 -3 -58 -12 -71 -25 -14 -13 -35 -20 -63 -20 -31 0 -45 -5 -54 -20 -9
-14 -24 -20 -46 -20 -19 0 -45 -9 -59 -20 -14 -11 -39 -20 -54 -20 -18 0 -34
-8 -41 -20 -9 -13 -24 -20 -45 -20 -22 0 -36 -6 -43 -20 -7 -13 -21 -20 -39
-20 -15 0 -36 -9 -46 -20 -10 -11 -29 -20 -42 -20 -13 0 -31 -9 -40 -20 -10
-11 -32 -23 -50 -26 -17 -3 -39 -15 -49 -25 -9 -10 -27 -19 -38 -19 -12 0 -27
-9 -34 -20 -7 -11 -23 -20 -37 -20 -14 0 -30 -9 -37 -20 -7 -11 -20 -20 -29
-20 -9 0 -26 -9 -39 -20 -13 -11 -29 -20 -36 -20 -7 0 -18 -9 -24 -20 -6 -11
-19 -20 -29 -20 -9 0 -44 -20 -75 -45 -32 -25 -64 -45 -70 -45 -7 0 -31 -18
-54 -40 -22 -22 -47 -40 -55 -40 -8 0 -22 -9 -32 -20 -10 -11 -22 -20 -27 -20
-4 0 -38 -29 -75 -65 -37 -36 -70 -65 -74 -65 -24 0 -176 -137 -332 -299 -29
-29 -107 -109 -174 -178 -68 -69 -123 -133 -123 -142 0 -10 -28 -47 -62 -82
-63 -64 -78 -83 -98 -128 -6 -13 -28 -41 -50 -62 -25 -25 -40 -48 -40 -64 0
-14 -8 -29 -19 -35 -11 -5 -23 -20 -27 -32 -3 -12 -13 -28 -20 -36 -8 -7 -14
-20 -14 -27 0 -8 -11 -22 -25 -31 -17 -11 -25 -25 -25 -45 0 -15 -6 -32 -13
-36 -14 -8 -38 -47 -58 -96 -6 -15 -20 -32 -30 -38 -12 -6 -19 -20 -19 -39 0
-19 -7 -33 -20 -40 -13 -7 -20 -21 -20 -40 0 -19 -7 -33 -20 -40 -13 -7 -20
-21 -20 -40 0 -18 -8 -37 -20 -47 -11 -9 -22 -36 -26 -59 -3 -24 -15 -51 -25
-60 -11 -10 -19 -30 -19 -49 0 -24 -5 -34 -20 -38 -16 -4 -20 -14 -20 -45 0
-26 -6 -45 -20 -57 -13 -12 -20 -31 -20 -55 0 -24 -7 -43 -20 -55 -15 -13 -20
-31 -20 -65 0 -36 -5 -51 -20 -61 -16 -11 -21 -26 -21 -73 -1 -45 -7 -64 -22
-79 -14 -14 -22 -39 -26 -86 -4 -38 -14 -77 -24 -91 -12 -17 -17 -44 -17 -94
0 -52 -4 -74 -17 -89 -14 -15 -19 -44 -23 -136 -4 -82 -11 -125 -23 -146 -15
-27 -17 -77 -17 -503 0 -423 2 -477 17 -510 12 -26 19 -76 22 -163 5 -98 10
-131 23 -145 11 -14 17 -43 20 -105 2 -67 7 -92 22 -107 13 -15 19 -39 20 -86
2 -52 7 -70 23 -86 16 -14 21 -31 21 -63 -1 -32 5 -53 20 -72 15 -19 22 -42
22 -70 0 -29 6 -47 20 -60 14 -13 20 -31 20 -61 0 -33 5 -46 20 -54 15 -8 20
-21 20 -50 0 -48 8 -70 26 -70 9 0 14 -12 14 -34 0 -18 8 -44 19 -57 10 -13
22 -40 26 -59 4 -19 16 -43 26 -53 11 -10 19 -31 19 -47 0 -19 7 -33 20 -40
13 -7 20 -21 20 -40 0 -19 7 -33 20 -40 11 -6 20 -21 20 -35 0 -13 7 -31 16
-40 28 -28 64 -85 64 -102 0 -9 11 -26 24 -38 16 -15 23 -30 19 -43 -3 -14 3
-25 19 -36 14 -9 37 -40 51 -70 15 -29 33 -56 42 -60 8 -3 15 -16 15 -28 0
-13 18 -43 41 -68 23 -25 46 -54 51 -65 19 -42 35 -63 87 -115 29 -29 59 -68
67 -85 7 -18 57 -79 111 -135 176 -185 322 -330 332 -330 5 0 13 -9 16 -20 3
-11 10 -20 15 -20 5 0 47 -38 94 -85 46 -47 91 -85 98 -85 8 0 23 -9 33 -20
10 -11 22 -20 27 -20 5 0 28 -18 50 -40 23 -22 49 -40 58 -40 8 0 37 -20 65
-45 27 -25 54 -45 61 -45 6 0 19 -9 29 -20 10 -11 24 -20 31 -20 7 0 18 -9 24
-20 6 -11 17 -20 24 -20 7 0 21 -9 31 -20 10 -11 26 -20 36 -20 11 0 24 -9 31
-20 7 -11 22 -20 34 -20 12 0 27 -7 34 -16 8 -8 27 -22 44 -29 31 -15 42 -21
107 -62 19 -13 42 -23 50 -23 8 0 20 -9 27 -20 8 -13 23 -20 42 -20 19 0 33
-7 40 -20 7 -14 21 -20 44 -20 20 0 40 -8 51 -20 12 -13 31 -20 56 -20 28 0
41 -5 49 -20 8 -14 21 -20 45 -20 24 0 37 -6 45 -20 8 -15 21 -20 50 -20 27 0
45 -7 59 -21 11 -12 37 -23 63 -26 23 -3 54 -14 67 -24 13 -11 39 -19 58 -19
20 0 46 -9 60 -20 18 -14 41 -20 73 -20 34 0 52 -5 65 -20 15 -16 31 -20 89
-20 54 0 78 -5 101 -20 24 -16 47 -20 111 -20 66 0 86 -4 107 -20 21 -17 40
-20 129 -20 84 0 110 -4 141 -20 35 -19 56 -20 471 -20 411 0 436 1 477 20 36
16 66 20 157 20 98 0 117 3 139 20 21 16 41 20 103 20 62 0 82 4 103 20 19 15
40 20 90 20 49 0 70 5 90 20 18 14 40 20 80 20 41 0 58 5 72 20 13 14 31 20
61 20 29 0 49 6 61 19 11 11 38 20 66 24 34 3 53 11 63 26 11 15 26 21 53 21
25 0 44 7 56 20 11 12 31 20 51 20 23 0 37 6 44 20 8 14 21 20 45 20 24 0 37
6 45 20 7 13 21 20 39 20 15 0 36 9 46 20 10 11 30 20 45 20 15 0 33 7 40 15
7 9 32 20 56 26 23 6 45 17 48 24 2 7 16 15 30 19 31 8 116 64 116 77 0 5 13
9 30 9 19 0 33 7 40 20 6 11 19 20 29 20 10 0 26 9 36 20 10 11 26 20 36 20
10 0 23 9 29 20 7 13 21 20 39 20 15 0 36 9 46 20 17 18 31 20 180 20 149 0
163 -2 180 -20 10 -11 27 -20 37 -20 11 0 31 -9 45 -20 14 -11 32 -20 40 -20
20 0 233 -219 233 -240 0 -9 28 -45 62 -81 85 -87 108 -119 108 -146 0 -13 6
-23 14 -23 15 0 26 -21 26 -49 0 -9 9 -24 19 -33 18 -15 20 -32 21 -192 0
-166 -1 -176 -20 -188 -13 -8 -20 -24 -20 -42 0 -16 -10 -38 -22 -51 -35 -34
-68 -76 -68 -85 0 -14 -189 -160 -207 -160 -10 0 -24 -9 -31 -20 -7 -11 -21
-20 -32 -20 -11 0 -28 -9 -37 -20 -10 -11 -22 -20 -29 -20 -6 0 -19 -9 -29
-20 -10 -11 -26 -20 -36 -20 -10 0 -26 -8 -36 -19 -10 -10 -29 -22 -43 -26
-14 -4 -36 -16 -49 -26 -13 -11 -31 -19 -41 -19 -9 0 -25 -9 -35 -20 -10 -11
-28 -20 -40 -20 -12 0 -30 -9 -40 -20 -10 -11 -28 -20 -40 -20 -12 0 -30 -9
-40 -20 -10 -11 -26 -20 -35 -20 -10 0 -29 -9 -43 -20 -14 -11 -36 -20 -50
-20 -13 0 -32 -9 -42 -20 -10 -11 -31 -20 -46 -20 -16 0 -36 -8 -46 -19 -10
-10 -35 -21 -57 -24 -21 -3 -46 -13 -55 -20 -9 -8 -32 -18 -51 -22 -19 -4 -41
-16 -48 -26 -9 -14 -25 -19 -56 -19 -30 0 -48 -6 -61 -20 -13 -15 -31 -20 -66
-20 -38 0 -51 -4 -59 -20 -8 -16 -21 -20 -59 -20 -35 0 -53 -5 -66 -20 -14
-15 -31 -20 -70 -20 -39 0 -56 -5 -70 -20 -14 -16 -31 -20 -75 -20 -43 0 -61
-5 -74 -19 -12 -14 -35 -20 -83 -23 -46 -3 -69 -9 -78 -21 -9 -13 -33 -18
-109 -21 -76 -3 -102 -8 -118 -23 -16 -14 -42 -19 -127 -23 -73 -4 -116 -11
-138 -23 -26 -14 -58 -17 -162 -17 -101 0 -138 -4 -165 -17 -19 -9 -33 -20
-30 -25 3 -4 -194 -7 -438 -7 -244 1 -434 4 -423 7 14 3 0 11 -45 23 -52 15
-100 19 -243 19 -158 0 -182 2 -217 20 -29 15 -59 20 -113 20 -60 0 -79 4
-101 21 -19 15 -46 22 -104 26 -50 4 -83 11 -95 22 -13 10 -44 17 -95 20 -56
2 -84 9 -101 22 -16 13 -40 19 -76 19 -39 0 -56 5 -70 20 -14 15 -31 20 -70
20 -39 0 -56 5 -70 20 -13 14 -31 20 -60 20 -29 0 -47 6 -60 20 -13 14 -31 20
-60 20 -29 0 -47 6 -60 20 -13 14 -31 20 -61 20 -31 0 -47 5 -57 20 -8 11 -31
22 -58 26 -24 4 -55 15 -68 26 -13 10 -34 18 -47 18 -13 0 -33 9 -44 20 -11
11 -29 20 -41 20 -11 0 -32 9 -46 20 -14 11 -35 20 -45 20 -11 0 -31 9 -45 20
-14 11 -36 20 -48 20 -12 0 -30 9 -40 20 -10 11 -26 20 -35 20 -10 0 -29 9
-43 20 -14 11 -31 20 -39 20 -7 0 -25 8 -38 17 -30 21 -73 46 -116 67 -17 8
-36 22 -44 30 -7 9 -23 16 -36 16 -13 0 -28 9 -34 20 -6 11 -21 20 -34 20 -13
0 -31 9 -41 20 -10 11 -24 20 -31 20 -7 0 -18 9 -24 20 -6 11 -20 20 -31 20
-19 0 -57 25 -100 65 -9 8 -26 15 -38 15 -12 0 -24 6 -27 14 -5 12 -94 76
-107 76 -2 0 -24 18 -48 40 -24 22 -51 40 -59 40 -8 0 -42 25 -75 56 -33 30
-74 61 -91 69 -18 7 -59 39 -92 72 -89 87 -118 112 -222 198 -103 86 -430 410
-430 427 0 14 -80 107 -149 175 -52 50 -69 73 -90 120 -6 12 -37 50 -71 84
-33 34 -60 71 -60 81 0 11 -20 39 -45 64 -25 24 -45 51 -45 62 0 10 -18 38
-40 62 -22 24 -40 52 -40 62 0 17 -11 31 -60 83 -11 12 -20 33 -20 47 0 17 -7
29 -17 32 -10 4 -31 33 -46 65 -15 33 -34 62 -42 65 -8 3 -15 17 -15 32 0 16
-10 36 -25 50 -14 13 -25 32 -25 44 0 11 -7 23 -15 26 -8 3 -17 22 -21 41 -4
19 -12 37 -20 40 -7 2 -16 18 -19 34 -4 16 -10 31 -15 34 -14 9 -70 126 -70
147 0 10 -9 26 -20 35 -13 11 -20 30 -20 51 0 25 -5 35 -20 39 -15 4 -20 14
-20 39 0 23 -6 37 -20 44 -14 7 -20 21 -20 44 0 18 -9 45 -20 59 -11 14 -20
36 -20 50 0 35 -10 57 -25 57 -8 0 -14 19 -17 52 -4 33 -12 56 -23 64 -11 8
-19 29 -21 60 -2 31 -10 53 -23 66 -14 12 -21 31 -21 57 0 24 -8 47 -20 61
-14 17 -20 37 -20 74 0 40 -4 54 -20 64 -16 10 -20 23 -20 72 0 47 -4 64 -20
80 -16 16 -20 33 -20 88 0 56 -4 72 -20 87 -17 15 -20 31 -20 95 0 60 -4 83
-19 101 -14 19 -19 46 -23 124 -3 68 -9 108 -20 125 -12 19 -17 62 -21 185 -4
117 -9 172 -21 200 -15 35 -17 99 -17 552 1 465 2 516 18 546 12 24 18 64 21
157 3 96 8 134 23 166 14 29 19 62 19 123 0 68 4 87 20 108 16 20 20 41 20 93
0 52 4 73 20 93 15 19 20 40 20 91 0 55 3 67 20 76 16 9 20 21 20 64 0 38 6
61 20 79 14 18 20 40 20 80 0 44 4 57 20 68 15 10 22 27 24 60 1 31 9 52 24
67 16 16 22 34 22 65 0 30 6 48 20 60 12 10 20 29 20 46 0 17 7 34 16 39 11 6
18 27 22 60 3 38 9 51 23 55 14 4 19 14 19 39 0 21 7 40 20 51 11 9 20 29 20
43 0 14 9 37 20 51 11 14 20 38 20 53 0 15 9 35 20 45 11 10 20 30 20 45 0 17
8 33 21 42 12 7 23 26 24 42 2 15 13 37 24 47 12 11 21 30 21 42 0 12 9 30 20
40 11 9 20 23 20 31 0 19 46 88 66 99 8 4 14 21 14 37 0 19 7 33 20 40 11 6
20 21 20 34 0 20 16 44 65 97 8 9 15 26 15 38 0 12 7 24 15 27 8 4 30 35 47
70 18 35 37 64 42 64 6 0 21 22 34 49 12 28 43 70 67 95 25 24 45 53 45 63 0
10 29 50 65 88 36 38 65 76 65 86 0 9 41 59 91 110 49 51 106 116 125 145 58
88 411 435 492 484 16 10 61 50 100 89 39 39 76 71 81 71 6 0 15 8 20 19 6 10
21 21 33 24 13 4 51 33 85 67 34 33 66 60 70 60 5 0 14 9 21 20 7 11 22 20 33
20 12 0 39 18 60 40 22 22 45 40 52 40 14 0 46 22 84 58 13 12 29 22 35 22 16
0 90 51 106 73 7 9 23 17 36 17 13 0 31 9 41 20 10 11 23 20 30 20 7 0 20 9
30 20 10 11 26 20 36 20 10 0 23 9 29 20 7 13 21 20 40 20 19 0 33 7 40 20 6
11 19 20 29 20 10 0 29 9 43 19 13 11 36 23 51 26 14 4 28 13 30 20 3 7 18 16
33 19 15 4 39 16 52 27 14 10 32 19 42 19 9 0 25 9 35 20 10 11 30 20 45 20
15 0 35 9 45 20 11 12 31 20 51 20 23 0 37 6 44 20 7 14 21 20 44 20 20 0 40
8 51 20 11 12 31 20 52 20 21 0 40 7 50 20 10 11 30 20 45 20 15 0 35 8 45 19
10 10 37 21 61 24 24 3 49 13 55 22 8 9 32 18 62 21 30 3 58 12 70 24 14 13
35 20 62 20 27 0 46 6 58 20 14 15 31 20 70 20 39 0 56 5 70 20 14 15 31 20
70 20 38 0 58 6 75 20 18 16 37 20 95 20 56 0 78 4 96 19 19 14 45 20 111 22
64 3 91 8 105 22 16 13 38 17 109 17 56 1 104 7 129 17 25 9 109 20 225 28
181 13 306 37 250 47 -14 3 171 5 410 5 239 0 419 -2 400 -5z m8013 -776 c13
-9 58 -16 115 -19 51 -2 98 -9 105 -16 6 -6 23 -11 38 -11 15 0 32 -7 39 -15
8 -10 30 -15 62 -15 34 0 50 -4 54 -15 4 -8 17 -15 30 -15 14 0 27 -7 30 -15
4 -8 16 -15 29 -15 13 0 25 -7 29 -15 3 -8 15 -15 26 -15 11 0 23 -6 26 -14 3
-8 13 -17 22 -20 29 -11 56 -30 97 -68 56 -51 91 -78 104 -78 6 0 13 -11 17
-23 3 -13 37 -55 75 -93 38 -38 69 -76 69 -85 0 -9 7 -22 15 -29 8 -7 15 -23
15 -35 0 -13 7 -25 15 -29 8 -3 15 -16 15 -30 0 -13 6 -26 14 -29 18 -7 46
-63 46 -92 0 -11 7 -30 15 -41 8 -10 15 -36 15 -56 0 -20 6 -41 14 -45 9 -5
15 -37 18 -99 3 -49 11 -101 18 -114 15 -28 9 -165 -9 -198 -6 -11 -11 -56
-11 -100 0 -59 -4 -83 -15 -92 -8 -7 -15 -27 -15 -45 0 -18 -7 -38 -15 -45 -8
-7 -15 -27 -15 -45 0 -18 -7 -38 -15 -45 -8 -7 -15 -20 -15 -30 0 -10 -7 -23
-15 -30 -8 -7 -15 -19 -15 -27 0 -8 -11 -29 -25 -47 -14 -18 -25 -37 -25 -42
0 -5 -21 -31 -45 -59 -25 -27 -45 -55 -45 -61 0 -12 -144 -154 -156 -154 -5 0
-27 -17 -50 -38 -22 -20 -71 -52 -108 -71 -37 -19 -70 -41 -73 -48 -3 -7 -16
-13 -29 -13 -14 0 -27 -7 -30 -15 -4 -10 -20 -15 -44 -15 -24 0 -40 -5 -44
-15 -3 -9 -18 -15 -39 -15 -19 0 -40 -7 -47 -15 -9 -11 -32 -15 -80 -15 -50 0
-71 -4 -81 -16 -12 -14 -34 -16 -172 -12 -101 3 -162 9 -169 16 -7 7 -35 12
-63 12 -30 0 -59 6 -71 15 -10 8 -30 15 -44 15 -14 0 -38 7 -54 15 -15 8 -36
15 -46 15 -10 0 -23 7 -30 15 -7 8 -23 15 -35 15 -13 0 -25 7 -29 15 -3 8 -14
15 -24 15 -11 0 -25 7 -32 15 -7 8 -17 15 -22 15 -5 0 -36 20 -68 45 -32 25
-63 45 -68 45 -11 0 -192 186 -192 198 0 5 -16 25 -35 45 -19 20 -35 43 -35
51 0 8 -13 30 -30 48 -16 18 -30 40 -30 49 0 9 -7 22 -15 29 -8 7 -15 21 -15
30 0 10 -6 20 -12 22 -7 3 -11 18 -10 35 1 18 -5 38 -13 46 -8 9 -15 29 -15
46 0 16 -7 36 -15 45 -10 10 -15 36 -15 83 -1 37 -7 86 -15 108 -18 48 -20
212 -4 217 7 2 12 40 14 96 2 66 8 96 19 107 9 9 15 31 14 51 -1 19 4 40 10
46 7 7 12 25 12 40 0 16 7 31 15 34 8 4 15 17 15 30 0 14 7 27 15 30 8 4 15
17 15 30 0 14 7 27 15 30 8 4 15 17 15 30 0 12 6 27 13 31 8 4 22 23 33 42 10
19 38 54 62 77 23 24 42 48 42 53 0 5 28 34 61 63 34 29 76 67 94 83 37 34 61
51 92 64 11 6 24 15 28 20 3 6 14 11 25 11 10 0 20 7 24 15 3 8 14 15 24 15
11 0 25 7 32 15 7 8 20 15 30 15 10 0 23 7 30 15 7 8 28 15 47 15 19 0 41 7
49 15 9 8 28 15 43 15 15 0 32 5 38 11 10 10 33 13 175 17 27 1 53 8 60 17 17
18 82 19 111 1z m-25153 -1835 l-55 -7 50 -7 c28 -5 65 -15 83 -23 25 -10 78
-14 219 -14 179 0 188 -1 210 -22 19 -18 39 -23 95 -26 46 -3 82 -11 102 -23
23 -14 50 -19 109 -19 66 0 80 -3 99 -22 14 -14 38 -23 72 -26 34 -3 55 -11
64 -23 7 -11 25 -19 39 -19 14 0 38 -11 55 -25 21 -18 41 -25 72 -25 30 0 48
-6 61 -20 13 -14 31 -20 64 -20 32 0 51 -6 66 -20 44 -44 84 -70 105 -70 13 0
33 -11 46 -25 13 -14 32 -25 42 -25 10 0 27 -9 37 -20 10 -11 28 -20 41 -20
13 0 35 -11 50 -25 15 -14 37 -25 49 -25 12 0 30 -9 40 -20 10 -11 22 -20 28
-20 5 0 22 -11 39 -25 16 -14 36 -25 43 -25 8 0 19 -9 25 -20 7 -13 21 -20 38
-20 20 0 41 -13 72 -45 24 -24 57 -47 73 -51 18 -4 56 -32 93 -68 98 -95 123
-116 142 -116 9 0 78 -59 152 -131 74 -71 146 -133 160 -136 36 -9 360 -336
360 -364 0 -12 16 -36 38 -56 29 -27 43 -33 64 -29 19 4 105 83 271 248 135
134 279 275 322 313 42 39 86 80 98 93 11 12 27 22 34 22 16 0 123 87 174 141
20 22 42 39 49 39 6 0 25 11 42 25 16 14 36 25 43 25 8 0 17 9 20 20 3 11 13
20 22 20 20 0 110 59 117 76 3 8 13 14 22 14 9 0 29 11 46 25 16 14 35 25 41
25 7 0 18 9 25 20 8 13 23 20 42 20 20 0 35 8 46 25 12 18 25 25 48 25 20 0
35 7 44 20 7 11 23 20 37 20 14 0 35 11 47 25 13 16 32 25 50 25 17 0 33 8 40
20 7 11 20 20 28 20 9 0 31 11 50 25 20 15 47 25 67 25 22 0 36 6 43 20 8 15
21 20 55 20 32 0 51 7 73 25 18 15 42 25 61 25 20 0 34 7 41 20 9 16 21 20 61
20 40 0 54 5 73 25 21 23 31 25 103 25 66 0 83 3 97 19 14 15 34 20 101 23 73
3 87 6 100 24 14 21 23 22 243 26 195 3 233 6 255 21 14 9 34 18 44 18 10 1 5
5 -12 9 -18 5 19 7 95 7 105 -1 113 -2 50 -6 -83 -7 -66 -21 26 -21 27 0 55
-5 61 -11 6 -6 96 -14 218 -19 176 -7 210 -11 227 -26 15 -14 41 -19 113 -22
76 -4 97 -8 111 -23 14 -15 31 -19 85 -19 57 0 72 -4 88 -21 14 -15 36 -23 70
-27 32 -3 56 -11 67 -23 12 -13 31 -19 62 -19 32 0 52 -7 74 -25 17 -14 42
-25 59 -25 18 0 33 -7 41 -20 10 -15 24 -20 59 -20 36 0 50 -5 67 -25 14 -15
32 -25 50 -25 16 0 32 -8 40 -20 7 -12 23 -20 40 -20 17 0 38 -10 52 -25 13
-14 35 -25 49 -25 15 0 31 -8 39 -20 7 -11 17 -20 23 -20 7 0 22 -11 35 -25
13 -14 32 -25 42 -25 10 0 27 -9 37 -20 10 -11 28 -20 41 -20 13 0 40 -18 66
-44 24 -24 53 -46 65 -50 11 -4 28 -15 38 -26 10 -11 23 -20 29 -20 6 0 43
-29 81 -65 39 -36 78 -65 87 -65 25 0 448 -426 448 -451 0 -12 29 -50 67 -90
37 -38 71 -78 74 -87 9 -23 51 -86 73 -107 9 -9 16 -25 16 -36 0 -10 20 -40
45 -66 25 -25 45 -55 45 -66 0 -10 9 -30 20 -44 11 -14 20 -33 20 -42 0 -10
11 -32 25 -51 14 -19 25 -41 25 -50 0 -10 9 -27 20 -40 11 -13 20 -30 20 -40
0 -9 11 -31 25 -50 14 -19 25 -44 25 -55 0 -12 9 -30 20 -40 14 -13 20 -31 20
-61 0 -32 6 -50 25 -70 15 -16 25 -39 25 -55 0 -16 9 -46 20 -66 11 -22 20
-57 20 -83 0 -27 10 -64 25 -95 16 -32 24 -68 25 -100 0 -29 7 -60 15 -72 12
-17 18 -70 25 -208 7 -130 14 -195 25 -215 8 -16 15 -57 16 -92 1 -47 3 -57 9
-38 5 17 8 -7 9 -70 0 -52 -3 -89 -7 -82 -6 8 -14 0 -26 -25 -14 -30 -19 -74
-23 -218 -5 -155 -8 -183 -24 -204 -15 -19 -19 -41 -19 -106 0 -75 -2 -84 -22
-97 -20 -14 -23 -24 -24 -92 -1 -67 -5 -80 -23 -92 -17 -12 -21 -26 -21 -66 0
-41 -5 -55 -25 -74 -15 -13 -25 -34 -25 -49 0 -15 -9 -38 -20 -52 -12 -16 -20
-41 -20 -64 0 -28 -6 -42 -20 -51 -12 -8 -20 -24 -20 -40 0 -18 -10 -36 -25
-50 -15 -13 -25 -32 -25 -48 0 -16 -10 -35 -26 -49 -17 -15 -23 -28 -19 -41 4
-14 -2 -27 -19 -44 -14 -13 -26 -32 -26 -43 0 -11 -11 -32 -25 -47 -14 -15
-25 -31 -25 -35 0 -5 -9 -11 -20 -14 -15 -4 -20 -14 -20 -42 0 -28 -5 -38 -19
-42 -11 -3 -25 -17 -31 -32 -14 -36 -51 -94 -72 -115 -10 -10 -18 -22 -18 -27
0 -5 -7 -9 -15 -9 -8 0 -21 -15 -29 -32 -7 -18 -30 -47 -50 -65 -20 -17 -36
-38 -36 -46 0 -18 -335 -357 -353 -357 -12 0 -36 -20 -133 -110 -12 -11 -25
-20 -31 -20 -5 0 -19 -11 -31 -25 -12 -14 -28 -25 -35 -25 -8 0 -22 -9 -32
-20 -10 -11 -24 -20 -30 -20 -7 0 -20 -11 -29 -25 -9 -14 -22 -25 -29 -25 -7
0 -18 -9 -25 -20 -7 -11 -23 -20 -35 -20 -13 0 -34 -11 -47 -25 -13 -14 -32
-25 -43 -25 -18 0 -60 -28 -102 -70 -12 -11 -33 -20 -47 -20 -17 0 -31 -8 -38
-20 -7 -13 -21 -20 -39 -20 -16 0 -37 -10 -51 -25 -14 -15 -35 -25 -52 -25
-17 0 -33 -8 -40 -20 -8 -13 -24 -20 -43 -20 -17 0 -46 -11 -65 -25 -21 -16
-47 -25 -70 -25 -24 0 -39 -6 -48 -20 -9 -16 -23 -20 -62 -20 -41 0 -54 -5
-72 -25 -18 -21 -31 -25 -74 -25 -43 0 -55 -4 -64 -20 -9 -17 -21 -20 -80 -20
-58 0 -73 -4 -98 -25 -27 -22 -39 -25 -115 -25 -67 0 -89 -4 -108 -19 -21 -15
-51 -19 -219 -25 -139 -5 -203 -11 -224 -21 -16 -8 -57 -15 -90 -15 -43 0 -57
-3 -46 -10 11 -7 -2 -10 -44 -10 -33 0 -56 3 -53 6 4 4 -9 15 -28 25 -30 16
-68 20 -263 26 -205 6 -228 8 -240 25 -11 15 -27 18 -89 18 -66 0 -80 3 -100
22 -20 18 -39 23 -98 26 -57 3 -78 9 -91 23 -12 13 -31 19 -59 19 -28 0 -52 8
-75 25 -22 16 -47 25 -72 25 -27 0 -40 5 -48 20 -8 16 -21 20 -59 20 -38 0
-52 5 -69 25 -15 17 -32 25 -55 25 -20 0 -44 9 -57 20 -13 11 -31 20 -40 20
-9 0 -26 11 -38 25 -12 14 -33 25 -47 25 -14 0 -30 9 -37 20 -9 13 -24 20 -44
20 -23 0 -36 7 -48 25 -11 17 -26 25 -46 25 -19 0 -34 7 -42 20 -8 13 -24 20
-42 20 -21 0 -40 12 -72 45 -28 30 -50 45 -67 45 -13 0 -30 7 -37 15 -19 23
-99 75 -115 75 -8 0 -22 11 -31 25 -9 14 -22 25 -29 25 -6 0 -20 9 -30 20 -10
11 -24 20 -32 20 -7 0 -23 11 -35 25 -12 14 -27 25 -34 25 -7 0 -16 9 -19 20
-3 11 -11 20 -17 20 -5 0 -19 11 -30 25 -11 14 -29 25 -41 25 -14 0 -40 18
-65 45 -23 25 -45 45 -48 45 -3 0 -46 41 -95 90 -48 50 -92 90 -97 90 -4 0
-28 20 -52 45 -24 25 -50 45 -57 45 -15 0 -173 158 -173 173 0 5 -21 33 -47
62 -27 28 -61 68 -77 88 -48 61 -74 54 -178 -50 -49 -47 -88 -91 -88 -97 0
-13 -161 -176 -174 -176 -9 0 -93 -76 -227 -206 -37 -35 -70 -64 -74 -64 -4 0
-26 -20 -49 -45 -24 -25 -52 -45 -62 -45 -10 0 -53 -32 -94 -70 -41 -39 -80
-70 -86 -70 -6 0 -19 -9 -29 -20 -10 -11 -24 -20 -31 -20 -8 0 -21 -11 -30
-25 -9 -14 -26 -25 -39 -25 -12 0 -30 -9 -40 -20 -10 -11 -23 -20 -30 -20 -6
0 -22 -11 -35 -25 -13 -14 -29 -25 -35 -25 -7 0 -20 -9 -30 -20 -10 -11 -23
-20 -30 -20 -7 0 -24 -11 -39 -25 -15 -14 -38 -25 -51 -25 -14 0 -29 -8 -35
-20 -7 -13 -21 -20 -40 -20 -20 0 -35 -8 -46 -25 -9 -14 -26 -25 -39 -25 -12
0 -30 -9 -40 -20 -10 -11 -26 -20 -35 -20 -9 0 -31 -11 -50 -25 -19 -14 -40
-25 -47 -25 -7 0 -17 -9 -23 -20 -8 -16 -21 -20 -60 -20 -38 0 -55 -5 -76 -25
-20 -19 -38 -25 -70 -25 -33 0 -47 -5 -56 -20 -8 -13 -24 -20 -44 -20 -20 0
-39 -9 -54 -25 -19 -20 -33 -25 -70 -25 -34 0 -52 -5 -65 -20 -15 -16 -31 -20
-86 -20 -57 0 -72 -4 -97 -25 -27 -22 -39 -25 -115 -25 -67 0 -89 -4 -108 -19
-21 -16 -50 -19 -215 -24 -147 -4 -199 -9 -222 -21 -17 -9 -47 -16 -67 -16
-22 0 -34 -4 -30 -10 4 -6 -13 -10 -45 -10 -32 0 -49 4 -45 10 4 6 -8 10 -30
10 -20 0 -46 6 -58 14 -16 10 -80 16 -232 21 -184 6 -212 9 -233 26 -20 15
-41 19 -110 19 -73 0 -89 3 -108 21 -16 15 -40 22 -98 26 -56 4 -80 11 -92 24
-12 13 -31 19 -59 19 -28 0 -52 8 -75 25 -23 17 -47 25 -75 25 -29 0 -47 6
-60 20 -12 14 -31 20 -58 20 -30 0 -46 6 -63 25 -13 15 -34 25 -49 25 -15 0
-38 9 -52 20 -14 11 -40 20 -58 20 -21 0 -39 8 -55 25 -14 15 -35 25 -51 25
-16 0 -32 7 -37 15 -8 15 -44 38 -110 70 -18 8 -35 22 -39 30 -3 9 -18 15 -38
15 -24 0 -37 7 -49 25 -10 15 -26 25 -40 25 -14 0 -48 23 -91 65 -38 36 -77
65 -87 65 -11 0 -29 11 -42 25 -13 14 -27 25 -32 25 -5 0 -27 20 -49 45 -24
28 -48 45 -61 45 -39 0 -444 416 -444 456 0 3 -31 37 -70 76 -38 38 -72 79
-76 90 -7 23 -61 105 -75 113 -5 4 -9 15 -9 27 0 11 -20 41 -45 66 -32 32 -45
54 -45 73 0 19 -8 34 -25 45 -18 12 -25 25 -25 49 0 25 -5 35 -20 40 -15 5
-20 15 -20 40 0 24 -7 37 -25 49 -19 12 -25 25 -25 51 0 25 -5 35 -20 40 -16
5 -20 15 -20 51 0 31 -6 50 -21 65 -12 12 -24 39 -26 60 -4 25 -13 44 -24 50
-13 7 -19 21 -19 46 0 19 -8 50 -19 67 -10 17 -21 60 -25 96 -4 41 -13 75 -26
92 -14 19 -20 44 -21 80 0 76 -14 149 -29 158 -9 6 -14 41 -16 112 -8 230 -12
280 -23 291 -6 6 -11 28 -11 49 0 21 -4 38 -10 38 -5 0 -10 18 -10 40 0 22 5
40 10 40 6 0 10 28 10 63 0 35 5 68 10 73 11 11 29 238 26 331 -1 42 3 56 22
73 19 18 22 31 22 97 0 64 3 80 21 99 16 17 22 39 25 85 3 46 9 67 24 81 14
13 20 32 20 63 0 32 6 51 20 65 11 11 20 33 20 48 0 15 11 43 25 62 16 22 25
47 25 72 0 27 5 40 20 48 11 6 20 21 20 35 0 33 10 55 25 55 15 0 25 22 25 55
0 14 9 29 20 35 13 7 20 21 20 40 0 20 9 38 25 52 14 12 25 32 25 44 0 13 4
25 9 29 17 10 68 91 74 118 4 14 16 28 27 32 10 3 22 15 25 26 10 31 63 106
101 143 19 18 34 37 34 43 0 5 18 27 40 49 22 21 40 47 40 56 0 17 292 318
309 318 5 0 11 7 14 15 4 8 21 21 40 29 19 7 44 27 56 44 12 17 31 34 44 38
12 4 40 26 63 50 22 24 44 44 49 44 14 0 104 63 109 76 3 8 14 14 25 14 11 0
33 11 49 25 17 14 34 25 39 25 4 0 14 9 21 20 8 13 23 20 42 20 20 0 35 8 46
25 9 14 23 25 32 25 19 0 92 48 110 73 8 10 26 17 47 17 24 0 38 6 45 20 7 13
21 20 39 20 16 0 37 10 51 25 18 19 34 25 65 25 29 0 47 6 60 20 10 11 31 20
46 20 16 0 40 11 55 25 21 19 38 25 75 25 37 0 51 4 58 19 8 14 25 20 75 23
50 3 71 9 89 26 19 18 35 22 89 22 49 0 70 5 86 19 17 14 44 19 118 24 76 4
101 10 118 25 19 18 40 20 201 24 99 3 191 10 205 16 14 6 48 14 75 19 l50 7
-55 7 c-34 3 0 6 90 6 90 0 124 -3 90 -6z m25834 -1516 c3 -8 13 -15 22 -15 9
0 33 -13 54 -30 21 -16 43 -30 49 -30 6 0 11 -8 11 -19 0 -10 7 -24 15 -31 8
-7 23 -26 32 -44 17 -29 18 -134 21 -1914 2 -1704 4 -1886 18 -1908 l16 -24
223 0 c186 0 225 -2 235 -15 7 -8 20 -15 30 -15 10 0 23 -7 30 -15 7 -8 17
-15 22 -15 14 0 68 -63 74 -87 3 -12 12 -24 19 -27 8 -3 13 -18 13 -34 -1 -34
9 -55 23 -47 5 4 9 -186 9 -489 0 -306 -4 -496 -9 -496 -6 0 -22 -24 -36 -52
-46 -92 -115 -149 -198 -163 -21 -3 -41 -13 -44 -21 -4 -12 -188 -14 -1359
-14 -798 0 -1354 4 -1354 9 0 12 -55 31 -89 31 -14 0 -41 14 -60 30 -18 17
-39 30 -45 31 -15 0 -76 96 -76 119 0 24 -25 71 -33 63 -4 -3 -7 212 -7 480 0
477 0 486 20 492 13 4 20 15 20 31 0 14 7 27 15 30 8 4 15 16 15 27 0 23 56
87 76 87 6 0 17 7 24 15 7 8 23 15 35 15 12 0 28 7 35 15 10 12 48 15 226 15
200 0 214 1 224 19 6 13 10 435 10 1276 l0 1257 -199 -2 c-128 0 -202 3 -206
10 -3 5 -25 10 -48 10 -39 0 -82 25 -129 77 -52 56 -78 91 -78 105 0 23 -21
68 -32 68 -4 0 -8 218 -8 484 0 475 0 484 20 489 14 3 20 14 20 31 0 15 8 39
17 54 24 37 78 92 90 92 6 0 16 7 23 15 7 8 20 15 30 15 10 0 23 7 30 15 11
13 144 15 1085 15 944 0 1074 -2 1079 -15z m-15917 -1737 c-3 -8 -6 -5 -6 6
-1 11 2 17 5 13 3 -3 4 -12 1 -19z"/>
<path d="M24333 21991 c-23 -4 -47 -12 -55 -18 -7 -6 -46 -13 -86 -15 -56 -4
-78 -10 -96 -27 -15 -14 -35 -21 -64 -21 -31 0 -44 -5 -52 -20 -7 -14 -21 -20
-43 -20 -20 0 -39 -8 -50 -20 -9 -11 -28 -20 -42 -20 -14 0 -29 -8 -35 -20 -6
-11 -21 -20 -33 -20 -12 0 -44 -21 -71 -45 -27 -25 -53 -45 -59 -45 -32 0
-186 -153 -254 -253 -25 -37 -54 -72 -65 -78 -10 -5 -18 -15 -18 -22 0 -7 -9
-18 -20 -25 -11 -7 -20 -23 -20 -37 0 -14 -8 -29 -19 -34 -10 -6 -22 -23 -25
-37 -4 -15 -16 -39 -27 -52 -10 -14 -19 -29 -19 -34 0 -6 -9 -21 -20 -35 -11
-14 -20 -40 -20 -58 0 -24 -5 -34 -20 -38 -15 -4 -20 -14 -20 -42 0 -22 -8
-47 -20 -62 -14 -18 -20 -41 -20 -73 0 -32 -6 -55 -20 -73 -15 -19 -20 -40
-20 -89 0 -46 -5 -71 -20 -93 -19 -28 -20 -47 -20 -338 0 -294 1 -310 20 -334
15 -19 20 -41 20 -83 0 -44 4 -61 20 -75 13 -11 20 -31 20 -52 0 -26 5 -36 20
-40 15 -4 20 -14 20 -40 0 -25 5 -36 18 -39 20 -6 58 -61 68 -98 3 -14 9 -26
13 -26 4 0 38 -29 76 -65 43 -41 77 -65 91 -65 13 0 28 -9 34 -20 6 -12 21
-20 37 -20 15 0 36 -11 49 -25 13 -14 34 -25 49 -25 14 0 38 -9 54 -21 26 -19
38 -20 270 -17 217 3 244 5 255 21 9 12 27 17 59 17 34 0 53 6 75 25 17 14 42
25 57 25 15 0 38 9 52 20 14 11 31 20 37 20 6 0 17 9 24 20 7 11 23 20 37 20
14 0 30 9 37 20 7 11 18 20 25 20 7 0 17 9 23 20 6 11 18 20 27 20 21 0 93 63
228 197 117 116 155 163 155 187 0 9 11 23 25 32 14 9 25 22 25 28 0 6 9 19
20 29 11 9 20 28 20 41 0 15 7 26 20 29 14 4 20 14 20 34 0 19 9 37 25 51 14
13 23 27 20 32 -9 15 5 50 20 50 15 0 25 22 25 56 0 13 9 33 20 44 14 14 20
33 20 65 0 32 4 45 14 45 19 0 26 23 26 89 0 45 4 62 20 76 17 16 20 31 20
114 0 63 7 121 20 170 27 99 26 214 0 281 -15 38 -20 74 -20 141 0 76 -3 95
-20 116 -12 15 -20 41 -20 63 0 21 -8 48 -18 61 -11 13 -22 38 -25 56 -4 18
-13 40 -22 50 -55 63 -65 78 -65 96 0 20 -146 167 -166 167 -6 0 -19 9 -29 20
-10 11 -26 20 -35 20 -9 0 -25 9 -35 20 -12 13 -31 20 -53 20 -22 0 -44 8 -58
21 -16 15 -40 22 -86 26 -37 3 -71 12 -82 22 -20 18 -167 25 -243 12z"/>
<path d="M7306 21931 c-13 -14 -34 -20 -91 -23 -59 -3 -78 -8 -98 -26 -17 -16
-35 -22 -68 -22 -36 0 -51 -5 -69 -25 -13 -14 -35 -25 -49 -25 -15 0 -31 -8
-39 -20 -7 -12 -23 -20 -40 -20 -17 0 -38 -10 -52 -25 -13 -14 -33 -25 -44
-25 -11 0 -31 -10 -44 -22 -13 -13 -33 -33 -46 -45 -13 -13 -27 -23 -32 -23
-20 0 -95 -62 -183 -153 -113 -114 -136 -143 -145 -179 -3 -16 -13 -28 -22
-28 -8 0 -20 -13 -25 -29 -6 -16 -17 -32 -25 -35 -8 -3 -14 -15 -14 -26 0 -12
-12 -32 -27 -46 -21 -20 -26 -34 -27 -76 -1 -41 -6 -54 -24 -66 -18 -12 -22
-24 -22 -67 0 -43 -4 -55 -22 -68 -23 -14 -23 -16 -23 -283 0 -266 0 -269 23
-292 16 -16 22 -34 22 -65 0 -30 6 -49 19 -61 11 -10 21 -37 25 -71 5 -46 12
-60 51 -99 28 -28 45 -55 45 -70 0 -12 9 -31 19 -40 11 -10 25 -31 31 -47 7
-16 16 -29 20 -29 5 0 13 -13 19 -30 5 -16 15 -30 21 -30 12 0 134 -122 157
-157 9 -13 20 -23 26 -23 16 0 115 -69 152 -106 21 -21 44 -34 59 -34 15 0 30
-8 36 -20 7 -13 21 -20 39 -20 16 0 37 -10 51 -25 14 -15 35 -25 51 -25 17 0
34 -8 42 -21 11 -15 30 -22 71 -26 36 -4 61 -12 72 -24 14 -15 31 -19 85 -19
58 0 71 -3 89 -22 21 -23 23 -23 320 -23 296 0 299 0 322 23 19 17 36 22 81
22 45 0 59 4 71 21 11 16 26 21 67 23 41 1 55 6 67 24 9 14 25 22 43 22 16 0
37 9 48 22 11 12 33 23 48 24 16 2 34 12 42 24 8 12 24 20 42 20 19 0 37 9 51
25 12 14 29 25 38 25 9 0 25 9 35 20 10 11 24 20 31 20 8 0 21 11 30 25 9 14
22 25 30 25 7 0 18 9 24 20 6 12 21 20 35 20 17 0 45 22 93 70 38 39 75 70 83
70 8 0 35 20 59 45 24 25 48 45 52 45 7 0 146 141 331 333 37 39 67 76 67 83
0 7 32 44 70 83 39 38 70 74 70 79 0 5 9 17 19 26 11 10 22 28 25 41 4 14 15
29 26 35 29 15 29 110 1 127 -19 12 -25 22 -67 101 -10 17 -22 32 -27 32 -13
0 -97 91 -110 120 -22 47 -52 81 -245 275 -139 140 -199 195 -216 195 -14 0
-37 16 -62 45 -21 24 -43 45 -49 45 -5 0 -28 21 -49 45 -23 26 -48 45 -60 45
-12 0 -43 20 -70 45 -26 25 -52 45 -56 45 -4 0 -19 11 -34 25 -15 14 -36 25
-46 25 -11 0 -24 9 -30 20 -7 13 -21 20 -39 20 -17 0 -36 10 -49 25 -14 16
-32 25 -52 25 -19 0 -33 7 -40 20 -7 13 -21 20 -40 20 -20 0 -38 9 -52 25 -18
20 -31 25 -71 25 -37 0 -53 5 -65 20 -12 14 -34 22 -72 27 -30 3 -69 14 -86
24 -29 17 -56 19 -321 19 -272 0 -291 -1 -307 -19z"/>
<path d="M13748 21931 c-21 -10 -60 -21 -88 -23 -33 -3 -59 -13 -73 -27 -17
-15 -36 -21 -68 -21 -36 0 -51 -5 -69 -25 -13 -14 -34 -25 -47 -25 -12 0 -28
-9 -35 -20 -9 -13 -24 -20 -44 -20 -23 0 -36 -7 -48 -25 -11 -17 -26 -25 -46
-25 -19 0 -34 -7 -42 -20 -7 -11 -18 -20 -24 -20 -6 0 -20 -11 -32 -25 -12
-14 -32 -25 -43 -25 -12 0 -32 -10 -45 -22 -13 -13 -33 -33 -46 -45 -13 -13
-32 -23 -43 -23 -11 0 -28 -9 -40 -20 -121 -118 -168 -160 -176 -160 -18 0
-64 -41 -193 -170 -181 -183 -266 -275 -266 -289 0 -6 -22 -35 -50 -63 -27
-28 -50 -55 -50 -60 0 -4 -7 -8 -16 -8 -8 0 -20 -13 -25 -30 -6 -16 -15 -30
-20 -30 -5 0 -15 -15 -23 -34 -8 -19 -22 -38 -31 -44 -12 -6 -19 -26 -23 -60
-4 -48 -3 -52 21 -61 14 -6 28 -20 32 -31 13 -41 64 -106 144 -186 62 -61 81
-85 81 -107 0 -17 7 -30 18 -34 20 -8 82 -70 82 -84 0 -5 4 -9 10 -9 5 0 24
-16 42 -36 18 -20 48 -50 67 -67 19 -18 39 -38 45 -44 37 -43 78 -83 83 -83 3
0 16 -11 29 -25 13 -14 31 -25 41 -25 10 0 58 -41 108 -90 59 -59 97 -90 112
-90 13 0 41 -19 67 -45 27 -26 56 -45 69 -45 13 0 40 -19 66 -45 32 -32 53
-45 73 -45 17 0 31 -7 38 -20 6 -11 21 -20 35 -20 13 0 37 -11 53 -25 17 -14
41 -25 54 -25 14 0 33 -9 42 -19 12 -13 38 -22 71 -26 33 -5 60 -14 71 -26 11
-13 31 -19 58 -19 24 0 58 -9 81 -22 39 -22 48 -23 339 -23 299 0 299 0 313
23 14 19 24 22 88 22 63 0 74 3 86 21 11 16 26 21 68 23 43 1 57 6 69 24 9 13
25 22 40 22 14 0 36 10 49 22 12 12 35 23 50 24 16 2 34 12 42 24 8 12 24 20
40 20 19 0 41 14 72 45 24 24 49 45 54 45 24 1 99 63 191 157 112 116 144 154
144 177 0 8 11 23 25 32 14 9 25 22 25 29 0 6 9 20 20 30 11 10 20 26 20 37 0
10 11 28 25 40 19 16 25 31 25 63 0 28 8 52 25 75 17 23 25 47 25 75 0 29 6
47 20 60 19 17 20 31 20 302 0 271 -1 284 -20 300 -13 12 -20 30 -20 53 0 26
-7 42 -25 58 -21 18 -25 31 -25 73 0 43 -3 52 -20 56 -11 3 -23 17 -27 31 -3
14 -17 41 -30 60 -12 19 -23 38 -23 42 0 4 -9 10 -20 13 -13 3 -20 14 -20 30
0 13 -9 32 -20 42 -11 10 -20 22 -20 27 0 12 -70 78 -81 78 -5 0 -9 4 -9 9 0
19 -163 171 -183 171 -12 0 -32 10 -45 23 -13 12 -33 32 -46 45 -13 12 -33 22
-45 22 -11 0 -31 11 -43 25 -15 17 -32 25 -54 25 -23 0 -37 6 -44 20 -7 13
-21 20 -39 20 -16 0 -37 10 -51 25 -19 20 -33 25 -76 25 -41 0 -54 4 -65 21
-11 15 -29 22 -74 26 -35 4 -70 14 -84 24 -22 18 -47 19 -320 19 -270 0 -300
-2 -333 -19z"/>
<path d="M73305 38044 c1089 -15 1868 -74 2720 -205 2498 -383 4825 -1279
6920 -2664 1951 -1290 3620 -2959 4910 -4910 1650 -2495 2615 -5347 2819
-8335 52 -758 53 -1616 1 -2385 -169 -2494 -883 -4937 -2080 -7115 -1939
-3528 -5031 -6270 -8753 -7761 -1213 -487 -2532 -846 -3794 -1035 -104 -16
-188 -32 -188 -36 0 -5 10 -6 23 -4 12 3 58 10 102 16 44 6 175 27 290 46
4078 677 7775 2801 10445 5999 2940 3522 4351 8050 3939 12645 -409 4574
-2617 8779 -6164 11740 -2561 2138 -5705 3496 -8995 3884 -689 82 -1225 115
-1940 120 -261 1 -376 2 -255 0z"/>
<path d="M72818 38033 c45 -2 119 -2 165 0 45 1 8 3 -83 3 -91 0 -128 -2 -82
-3z"/>
<path d="M72563 38023 c26 -2 68 -2 95 0 26 2 4 3 -48 3 -52 0 -74 -1 -47 -3z"/>
<path d="M72377 38013 c18 -2 50 -2 70 0 21 2 7 4 -32 4 -38 0 -55 -2 -38 -4z"/>
<path d="M72223 38003 c15 -2 39 -2 55 0 15 2 2 4 -28 4 -30 0 -43 -2 -27 -4z"/>
<path d="M72088 37993 c12 -2 32 -2 45 0 12 2 2 4 -23 4 -25 0 -35 -2 -22 -4z"/>
<path d="M71963 37983 c9 -2 25 -2 35 0 9 3 1 5 -18 5 -19 0 -27 -2 -17 -5z"/>
<path d="M71848 37973 c6 -2 18 -2 25 0 6 3 1 5 -13 5 -14 0 -19 -2 -12 -5z"/>
<path d="M38010 26415 l0 -2235 2240 0 2240 0 0 2235 0 2235 -2240 0 -2240 0
0 -2235z"/>
<path d="M49280 26415 l0 -2235 2240 0 2240 0 0 2235 0 2235 -2240 0 -2240 0
0 -2235z"/>
<path d="M62610 20780 l0 -7870 2240 0 2240 0 0 2820 0 2820 3395 0 3395 0 0
-2820 0 -2820 2240 0 2240 0 0 7870 0 7870 -7875 0 -7875 0 0 -7870z m11270
2820 l0 -580 -3395 0 -3395 0 0 580 0 580 3395 0 3395 0 0 -580z"/>
<path d="M80800 20780 l0 -7870 2240 0 2240 0 0 7870 0 7870 -2240 0 -2240 0
0 -7870z"/>
<path d="M43640 20785 l0 -2235 2245 0 2245 0 0 2235 0 2235 -2245 0 -2245 0
0 -2235z"/>
<path d="M38010 15145 l0 -2235 2240 0 2240 0 0 2235 0 2235 -2240 0 -2240 0
0 -2235z"/>
<path d="M49280 15145 l0 -2235 2240 0 2240 0 0 2235 0 2235 -2240 0 -2240 0
0 -2235z"/>
<path d="M55670 15145 l0 -2235 2240 0 2240 0 0 2235 0 2235 -2240 0 -2240 0
0 -2235z"/>
<path d="M71710 3504 c539 -56 1022 -79 1705 -79 347 0 687 6 825 13 426 23
1072 78 950 81 -30 0 -122 -6 -205 -14 -474 -45 -972 -66 -1575 -66 -590 -1
-1062 20 -1570 66 -85 8 -177 14 -205 14 -30 -1 1 -7 75 -15z"/>
</g>
</svg>
